<?xml version="1.0"?>
<svg id="Livello_2" data-name="Livello 2" xmlns="http://www.w3.org/2000/svg" viewBox="0 0 2527.58 645.63">
  <defs>
    
  </defs>
  <g id="Livello_1-2" data-name="Livello 1">
    <g>
      <path d="M554.09,640.81v-301.62c0-26.34-9.15-48.5-27.46-66.49-18.31-17.98-40.64-26.98-66.97-26.98s-48.18,9-67.45,26.98c-18.64,17.34-27.95,39.19-27.95,65.53v302.58h-87.69v-302.58c0-26.98-9-48.82-26.98-65.53-19.27-17.98-42.08-26.98-68.42-26.98s-47.55,9-65.53,26.98c-19.27,19.27-28.91,42.08-28.91,68.42v299.69H0V170.56h86.73v35.65c10.92-13.49,25.2-24.72,42.88-33.73,17.66-8.99,34.84-13.49,51.55-13.49,28.26,0,54.11,5.63,77.57,16.86,23.44,11.25,43.84,26.83,61.19,46.74,17.34-19.9,37.9-35.49,61.67-46.74,23.76-11.23,49.78-16.86,78.05-16.86,25.05,0,48.5,4.5,70.35,13.49,21.83,9,41.11,21.85,57.82,38.55,16.7,16.71,29.71,36.13,39.03,58.3,9.31,22.16,13.97,45.46,13.97,69.86v301.62h-86.73Z"></path>
      <path d="M747.78,436.52c0,15.42,5.62,31.48,16.86,48.18,11.23,16.71,24.24,30.84,39.03,42.4,26.98,21.2,58.45,31.8,94.44,31.8,57.17,0,103.74-27.62,139.73-82.87l73.24,43.36c-25.05,40.47-55.89,71.64-92.51,93.47-36.62,21.85-76.77,32.76-120.45,32.76-32.76,0-63.93-6.26-93.47-18.79-29.56-12.53-55.57-30.02-78.05-52.52-22.49-22.48-39.99-48.5-52.52-78.05-12.53-29.54-18.79-60.71-18.79-93.47s6.26-64.08,18.79-93.95c12.53-29.87,30.02-56.04,52.52-78.53,21.83-22.48,47.7-39.83,77.57-52.04,29.87-12.19,61.19-18.31,93.95-18.31s64.08,6.12,93.95,18.31c29.87,12.21,55.73,29.56,77.57,52.04,47.53,48.83,71.31,105.37,71.31,169.6,0,11.56-.96,23.77-2.89,36.62h-390.27ZM823.9,256.32c-23.13,11.57-41.6,26.83-55.41,45.77-13.82,18.96-20.72,39.03-20.72,60.23h300.65c0-21.2-6.91-41.27-20.72-60.23-13.82-18.94-32.28-34.21-55.41-45.77-23.13-11.56-47.87-17.34-74.2-17.34s-51.07,5.78-74.2,17.34Z"></path>
      <path d="M1453.15,640.81v-289.09c0-28.91-10.6-53.96-31.8-75.16-20.57-20.55-45.63-30.84-75.16-30.84s-53.97,10.6-75.16,31.8c-9.64,9.63-17.34,21.05-23.13,34.21-5.78,13.17-8.67,26.5-8.67,39.99v289.09h-83.84V170.56h83.84v39.51c12.2-14.77,28.26-26.98,48.18-36.62,19.91-9.63,39.51-14.46,58.78-14.46,25.69,0,50.26,4.98,73.72,14.94,23.44,9.97,44.16,23.94,62.15,41.92,17.35,17.34,30.99,37.75,40.96,61.19,9.95,23.46,14.94,48.34,14.94,74.68v289.09h-84.8Z"></path>
      <path d="M2465.53,247.61c-7.87-1.76-16.13-2.64-24.77-2.64-28.91,0-53.97,10.6-75.16,31.8-9.64,9.63-17.34,21.05-23.13,34.21-5.78,13.17-8.67,26.5-8.67,39.99v289.09h-83.84V169.81h83.84v39.51c12.2-14.77,28.26-26.98,48.18-36.62,19.91-9.63,39.51-14.46,58.78-14.46,8.39,0,16.66.53,24.82,1.6l-.05,87.77Z"></path>
      <path d="M1696.95,245.72v395.09h-81.91V245.72h-72.27v-86.73h72.27V0h81.91v159h72.27v86.73h-72.27Z"></path>
      <path d="M1895.44,626.36c-29.56-12.84-55.57-30.5-78.05-53-22.5-22.48-40.16-48.5-53-78.05-12.86-29.54-19.27-60.71-19.27-93.47s6.41-65.2,19.27-95.4c12.84-30.19,30.51-56.52,53-79.02,22.48-22.48,48.5-39.99,78.05-52.52,29.54-12.53,60.71-18.79,93.47-18.79s65.2,6.26,95.4,18.79c30.19,12.53,56.52,30.04,79.02,52.52,22.48,22.5,39.99,48.83,52.52,79.02,12.52,30.2,18.79,62,18.79,95.4s-6.27,63.93-18.79,93.47c-12.53,29.56-30.04,55.57-52.52,78.05-22.5,22.5-48.83,40.16-79.02,53-30.21,12.86-62,19.27-95.4,19.27s-63.93-6.41-93.47-19.27ZM1878.1,288.12c-14.79,14.79-26.35,32.13-34.69,52.04-8.35,19.92-12.53,40.47-12.53,61.67s4.17,41.44,12.53,60.71c8.34,19.27,19.91,36.3,34.69,51.07,14.77,14.79,31.63,26.35,50.59,34.69,18.94,8.36,39.03,12.53,60.22,12.53s41.75-4.17,61.67-12.53c19.91-8.34,36.93-19.9,51.07-34.69,14.12-14.77,25.37-31.8,33.73-51.07,8.34-19.27,12.53-39.51,12.53-60.71s-4.18-41.75-12.53-61.67c-8.35-19.91-19.6-37.25-33.73-52.04-14.14-14.77-31-26.17-50.59-34.21-19.6-8.02-40.32-12.04-62.16-12.04-43.05,0-79.98,15.42-110.81,46.25Z"></path>
      <path class="cls-1" d="M2454.83,628.77c-8.04-8.02-12.04-18.14-12.04-30.35,0-11.56,4-21.51,12.04-29.87,8.03-8.34,18.15-12.53,30.36-12.53,11.56,0,21.51,4.19,29.87,12.53,8.34,8.36,12.53,18.31,12.53,29.87,0,12.21-4.19,22.33-12.53,30.35-8.36,8.04-18.31,12.05-29.87,12.05-12.21,0-22.33-4.01-30.36-12.05Z"></path>
    </g>
  </g>
</svg>