<?xml version="1.0"?>
<svg id="Livello_2" data-name="Livello 2" xmlns="http://www.w3.org/2000/svg" viewBox="0 0 1752.27 1916.81">
  <defs>
    
  </defs>
  <g id="Livello_1-2" data-name="Livello 1">
    <g>
      <polygon fill="#FFFFFF" points="1653.47 1437.61 1653.47 479.2 826.73 0 0 479.2 0 1437.61 826.73 1916.81 1653.47 1437.61"></polygon>
      <path fill="#FF7237" class="cls-1" d="M1542.11,1190.82v-1.96c0-55.27,44.81-100.08,100.08-100.08h0c55.27,0,100.08,44.81,100.08,100.08v1.96c0,55.27-44.81,100.08-100.08,100.08h0c-55.27,0-100.08-44.81-100.08-100.08Z"></path>
      <path fill="#000000" class="cls-2" d="M1126.18,1251.95v-360.29c0-31.45-10.94-57.93-32.81-79.42-21.87-21.47-48.54-32.23-80-32.23s-57.55,10.76-80.57,32.23c-22.27,20.72-33.38,46.82-33.38,78.27v361.44h-104.75v-361.44c0-32.23-10.76-58.31-32.23-78.27-23.02-21.47-50.27-32.23-81.73-32.23s-56.8,10.76-78.27,32.23c-23.02,23.02-34.53,50.27-34.53,81.73v357.98h-103.6v-561.73h103.6v42.59c13.04-16.12,30.11-29.53,51.22-40.29,21.1-10.74,41.62-16.12,61.58-16.12,33.76,0,64.64,6.73,92.66,20.15,28.01,13.44,52.37,32.05,73.1,55.83,20.72-23.78,45.27-42.39,73.67-55.83,28.38-13.42,59.46-20.15,93.24-20.15,29.93,0,57.93,5.38,84.03,16.12,26.08,10.76,49.1,26.1,69.06,46.04,19.94,19.96,35.49,43.17,46.62,69.64,11.11,26.47,16.69,54.3,16.69,83.45v360.29h-103.6Z"></path>
    </g>
  </g>
</svg>